<svg width="242" height="247" viewBox="0 0 242 247" fill="none" xmlns="http://www.w3.org/2000/svg">
	<rect width="242" height="247" rx="12.5" fill="#000000" />

	<g transform="translate(121 123.5) scale(0.7) translate(-121 -123.5)">
		<path
			d="M84.5 70C42.8333 103.333 38.6667 149.167 72 207.5M159.5 170C201.167 136.667 205.333 91.7305 172 33.3972M122 20C95.4784 20 70.043 30.5357 51.2893 49.2893C32.5357 68.043 22 93.4784 22 120C22 146.522 32.5357 171.957 51.2893 190.711C70.043 209.464 95.4784 220 122 220C148.522 220 173.957 209.464 192.711 190.711C211.464 171.957 222 146.522 222 120C222 93.4784 211.464 68.043 192.711 49.2893C173.957 30.5357 148.522 20 122 20ZM122 57.5C105.424 57.5 89.5269 64.0848 77.8058 75.8058C66.0848 87.5269 59.5 103.424 59.5 120C59.5 136.576 66.0848 152.473 77.8058 164.194C89.5269 175.915 105.424 182.5 122 182.5C138.576 182.5 154.473 175.915 166.194 164.194C177.915 152.473 184.5 136.576 184.5 120C184.5 103.424 177.915 87.5269 166.194 75.8058C154.473 64.0848 138.576 57.5 122 57.5Z"
			stroke="white" stroke-width="10" stroke-linejoin="round" />
	</g>
</svg>